<?xml version="1.0" encoding="UTF-8" standalone="no"?> <svg width="64" height="64" viewBox="0 0 64 64" fill="none" xmlns="http://www.w3.org/2000/svg">
<path d="M35.51 8.05V4C35.51 3.73478 35.4046 3.48043 35.2171 3.29289C35.0296 3.10536 34.7752 3 34.51 3C29.0976 3.0007 23.7767 4.39551 19.06 7.05V7.05C18.8388 7.18416 18.6642 7.38317 18.56 7.62C17.6877 10.1549 16.249 12.4577 14.3534 14.3534C12.4577 16.249 10.1549 17.6877 7.62 18.56C7.38317 18.6642 7.18416 18.8388 7.05 19.06V19.06C4.39551 23.7767 3.0007 29.0976 3 34.51C3 34.7752 3.10536 35.0296 3.29289 35.2171C3.48043 35.4046 3.73478 35.51 4 35.51H8.05C8.31352 42.354 11.2156 48.8304 16.1482 53.5821C21.0808 58.3338 27.661 60.9922 34.51 61C69.05 59.66 69.9 10.65 35.51 8.05ZM51.43 27.11C51.7409 27.1379 52.0302 27.2811 52.2408 27.5115C52.4515 27.7419 52.5683 28.0428 52.5683 28.355C52.5683 28.6672 52.4515 28.9681 52.2408 29.1985C52.0302 29.4289 51.7409 29.5721 51.43 29.6C51.1191 29.5721 50.8298 29.4289 50.6192 29.1985C50.4085 28.9681 50.2917 28.6672 50.2917 28.355C50.2917 28.0428 50.4085 27.7419 50.6192 27.5115C50.8298 27.2811 51.1191 27.1379 51.43 27.11V27.11ZM41.24 17.32C41.4734 17.0866 41.7899 16.9555 42.12 16.9555C42.4501 16.9555 42.7666 17.0866 43 17.32C43.2334 17.5534 43.3645 17.8699 43.3645 18.2C43.3645 18.5301 43.2334 18.8466 43 19.08C42.8844 19.1956 42.7472 19.2872 42.5963 19.3498C42.4453 19.4123 42.2834 19.4445 42.12 19.4445C41.9566 19.4445 41.7947 19.4123 41.6437 19.3498C41.4928 19.2872 41.3556 19.1956 41.24 19.08C41.1244 18.9644 41.0328 18.8272 40.9702 18.6763C40.9077 18.5253 40.8755 18.3634 40.8755 18.2C40.8755 18.0366 40.9077 17.8747 40.9702 17.7237C41.0328 17.5728 41.1244 17.4356 41.24 17.32V17.32ZM35.89 18.94C36.0056 18.8244 36.1428 18.7328 36.2937 18.6702C36.4447 18.6077 36.6066 18.5755 36.77 18.5755C36.9334 18.5755 37.0953 18.6077 37.2463 18.6702C37.3972 18.7328 37.5344 18.8244 37.65 18.94C37.7656 19.0556 37.8572 19.1928 37.9198 19.3437C37.9823 19.4947 38.0145 19.6566 38.0145 19.82C38.0145 19.9834 37.9823 20.1453 37.9198 20.2963C37.8572 20.4472 37.7656 20.5844 37.65 20.7C37.4166 20.9334 37.1001 21.0645 36.77 21.0645C36.4399 21.0645 36.1234 20.9334 35.89 20.7C35.6566 20.4666 35.5255 20.1501 35.5255 19.82C35.5255 19.4899 35.6566 19.1734 35.89 18.94V18.94ZM27 22.53C26.9721 22.8409 26.8289 23.1302 26.5985 23.3408C26.3681 23.5515 26.0672 23.6683 25.755 23.6683C25.4428 23.6683 25.1419 23.5515 24.9115 23.3408C24.6811 23.1302 24.5379 22.8409 24.51 22.53C24.5379 22.2191 24.6811 21.9298 24.9115 21.7192C25.1419 21.5085 25.4428 21.3917 25.755 21.3917C26.0672 21.3917 26.3681 21.5085 26.5985 21.7192C26.8289 21.9298 26.9721 22.2191 27 22.53V22.53ZM20.31 8.65C24.3639 6.41747 28.8851 5.1673 33.51 5V15C28.6851 15.2594 24.1262 17.2928 20.7095 20.7095C17.2928 24.1262 15.2594 28.6851 15 33.51H5C5.15808 28.8875 6.39793 24.3665 8.62 20.31C11.2978 19.3309 13.7304 17.7809 15.7491 15.7674C17.7677 13.7539 19.3241 11.3253 20.31 8.65V8.65ZM13.55 39.05C13.2391 39.0221 12.9498 38.8789 12.7392 38.6485C12.5285 38.4181 12.4117 38.1172 12.4117 37.805C12.4117 37.4928 12.5285 37.1919 12.7392 36.9615C12.9498 36.7311 13.2391 36.5879 13.55 36.56C13.8609 36.5879 14.1502 36.7311 14.3608 36.9615C14.5715 37.1919 14.6883 37.4928 14.6883 37.805C14.6883 38.1172 14.5715 38.4181 14.3608 38.6485C14.1502 38.8789 13.8609 39.0221 13.55 39.05V39.05ZM17.6 41.91C17.2891 41.8821 16.9998 41.7389 16.7892 41.5085C16.5785 41.2781 16.4617 40.9772 16.4617 40.665C16.4617 40.3528 16.5785 40.0519 16.7892 39.8215C16.9998 39.5911 17.2891 39.4479 17.6 39.42C17.9109 39.4479 18.2002 39.5911 18.4108 39.8215C18.6215 40.0519 18.7383 40.3528 18.7383 40.665C18.7383 40.9772 18.6215 41.2781 18.4108 41.5085C18.2002 41.7389 17.9109 41.8821 17.6 41.91V41.91ZM19.82 33.5C19.6176 33.4973 19.419 33.445 19.2414 33.3479C19.0638 33.2507 18.9128 33.1115 18.8014 32.9425C18.69 32.7735 18.6216 32.5798 18.6023 32.3783C18.583 32.1769 18.6134 31.9737 18.6906 31.7866C18.7679 31.5996 18.8898 31.4342 19.0457 31.3051C19.2016 31.176 19.3867 31.087 19.5849 31.0459C19.7831 31.0048 19.9884 31.0129 20.1827 31.0694C20.3771 31.1259 20.5547 31.2291 20.7 31.37C20.8686 31.5465 20.9824 31.7682 21.0273 32.0081C21.0723 32.2481 21.0467 32.4959 20.9535 32.7215C20.8603 32.9471 20.7035 33.1408 20.5023 33.279C20.3011 33.4172 20.064 33.494 19.82 33.5V33.5ZM22.9 52.5C22.7844 52.6156 22.6472 52.7072 22.4963 52.7698C22.3453 52.8323 22.1834 52.8645 22.02 52.8645C21.8566 52.8645 21.6947 52.8323 21.5437 52.7698C21.3928 52.7072 21.2556 52.6156 21.14 52.5C21.0244 52.3844 20.9328 52.2472 20.8702 52.0963C20.8077 51.9453 20.7755 51.7834 20.7755 51.62C20.7755 51.4566 20.8077 51.2947 20.8702 51.1437C20.9328 50.9928 21.0244 50.8556 21.14 50.74C21.3787 50.5066 21.7003 50.3776 22.0341 50.3814C22.368 50.3851 22.6866 50.5213 22.92 50.76C23.1534 50.9987 23.2824 51.3203 23.2787 51.6541C23.2749 51.988 23.1387 52.3066 22.9 52.54V52.5ZM22.53 44.5C22.2191 44.4721 21.9298 44.3289 21.7192 44.0985C21.5085 43.8681 21.3917 43.5672 21.3917 43.255C21.3917 42.9428 21.5085 42.6419 21.7192 42.4115C21.9298 42.1811 22.2191 42.0379 22.53 42.01C22.8668 42.01 23.1899 42.1438 23.428 42.382C23.6662 42.6201 23.8 42.9432 23.8 43.28C23.8 43.6168 23.6662 43.9399 23.428 44.178C23.1899 44.4162 22.8668 44.55 22.53 44.55V44.5ZM27.79 51.65C27.5535 51.8367 27.2575 51.9316 26.9566 51.9174C26.6556 51.9032 26.3699 51.7808 26.1521 51.5727C25.9342 51.3646 25.7989 51.0848 25.7709 50.7848C25.743 50.4848 25.8243 50.1848 26 49.94C26.2334 49.7026 26.5515 49.5677 26.8844 49.5649C27.2173 49.5621 27.5376 49.6916 27.775 49.925C28.0124 50.1584 28.1473 50.4765 28.1501 50.8094C28.1529 51.1423 28.0234 51.4626 27.79 51.7V51.65ZM33.14 50.03C32.9079 50.2647 32.5921 50.3976 32.2621 50.3995C31.932 50.4014 31.6147 50.2721 31.38 50.04C31.1453 49.8079 31.0124 49.4921 31.0105 49.1621C31.0086 48.832 31.1379 48.5147 31.37 48.28C31.6087 48.0453 31.9309 47.915 32.2656 47.9178C32.6004 47.9206 32.9203 48.0563 33.155 48.295C33.3897 48.5337 33.52 48.8559 33.5172 49.1906C33.5144 49.5254 33.3787 49.8453 33.14 50.08V50.03ZM37.8 56.67C37.4891 56.6421 37.1998 56.4989 36.9892 56.2685C36.7785 56.0381 36.6617 55.7372 36.6617 55.425C36.6617 55.1128 36.7785 54.8119 36.9892 54.5815C37.1998 54.3511 37.4891 54.2079 37.8 54.18C38.1368 54.18 38.4599 54.3138 38.698 54.552C38.9362 54.7901 39.07 55.1132 39.07 55.45C39.07 55.7868 38.9362 56.1099 38.698 56.348C38.4599 56.5862 38.1368 56.72 37.8 56.72V56.67ZM40.67 52.67C40.3591 52.6421 40.0698 52.4989 39.8592 52.2685C39.6485 52.0381 39.5317 51.7372 39.5317 51.425C39.5317 51.1128 39.6485 50.8119 39.8592 50.5815C40.0698 50.3511 40.3591 50.2079 40.67 50.18C40.9809 50.2079 41.2702 50.3511 41.4808 50.5815C41.6915 50.8119 41.8083 51.1128 41.8083 51.425C41.8083 51.7372 41.6915 52.0381 41.4808 52.2685C41.2702 52.4989 40.9809 52.6421 40.67 52.67V52.67ZM43.31 47.74C42.9991 47.7121 42.7098 47.5689 42.4992 47.3385C42.2885 47.1081 42.1717 46.8072 42.1717 46.495C42.1717 46.1828 42.2885 45.8819 42.4992 45.6515C42.7098 45.4211 42.9991 45.2779 43.31 45.25C43.6209 45.2779 43.9102 45.4211 44.1208 45.6515C44.3315 45.8819 44.4483 46.1828 44.4483 46.495C44.4483 46.8072 44.3315 47.1081 44.1208 47.3385C43.9102 47.5689 43.6209 47.7121 43.31 47.74V47.74ZM45.25 34.52C45.48 40.14 40.12 45.52 34.5 45.25C25.1 45.35 20.15 33.59 26.91 26.91C33.67 20.23 45.37 25.11 45.25 34.52V34.52ZM46.5 27C46.1891 26.9721 45.8998 26.8289 45.6892 26.5985C45.4785 26.3681 45.3617 26.0672 45.3617 25.755C45.3617 25.4428 45.4785 25.1419 45.6892 24.9115C45.8998 24.6811 46.1891 24.5379 46.5 24.51C46.8109 24.5379 47.1002 24.6811 47.3108 24.9115C47.5215 25.1419 47.6383 25.4428 47.6383 25.755C47.6383 26.0672 47.5215 26.3681 47.3108 26.5985C47.1002 26.8289 46.8109 26.9721 46.5 27V27ZM47 18.6C46.7965 18.5989 46.5965 18.5479 46.4174 18.4512C46.2384 18.3546 46.0859 18.2154 45.9733 18.0459C45.8608 17.8764 45.7917 17.6818 45.7722 17.4793C45.7526 17.2768 45.7831 17.0725 45.8611 16.8846C45.9391 16.6967 46.0622 16.5309 46.2194 16.4018C46.3766 16.2726 46.5632 16.1842 46.7627 16.1442C46.9622 16.1042 47.1685 16.1139 47.3633 16.1725C47.5582 16.2311 47.7356 16.3367 47.88 16.48C48.0499 16.6552 48.1648 16.8764 48.2105 17.1162C48.2562 17.356 48.2306 17.6039 48.1371 17.8293C48.0435 18.0548 47.8859 18.2479 47.6839 18.3849C47.4818 18.5218 47.2441 18.5966 47 18.6V18.6ZM48.32 37.6C48.0866 37.3679 47.955 37.0527 47.954 36.7235C47.9531 36.3944 48.0829 36.0784 48.315 35.845C48.5471 35.6116 48.8623 35.48 49.1915 35.479C49.5206 35.4781 49.8366 35.6079 50.07 35.84C50.31 36.0707 50.4486 36.3874 50.4551 36.7203C50.4617 37.0531 50.3357 37.375 50.105 37.615C49.8743 37.855 49.5576 37.9936 49.2248 38.0001C48.8919 38.0067 48.57 37.8807 48.33 37.65L48.32 37.6ZM49.93 41.19C50.17 40.9553 50.4935 40.8255 50.8291 40.8293C51.1648 40.833 51.4853 40.97 51.72 41.21C51.9547 41.45 52.0845 41.7735 52.0807 42.1091C52.077 42.4448 51.94 42.7653 51.7 43C51.4666 43.2334 51.1501 43.3645 50.82 43.3645C50.4899 43.3645 50.1734 43.2334 49.94 43C49.7066 42.7666 49.5755 42.4501 49.5755 42.12C49.5755 41.7899 49.7066 41.4734 49.94 41.24L49.93 41.19ZM52.53 47.84C52.2966 48.0734 51.9801 48.2045 51.65 48.2045C51.3199 48.2045 51.0034 48.0734 50.77 47.84C50.5366 47.6066 50.4055 47.2901 50.4055 46.96C50.4055 46.6299 50.5366 46.3134 50.77 46.08C51.01 45.8453 51.3335 45.7155 51.6691 45.7193C52.0048 45.723 52.3253 45.86 52.56 46.1C52.7947 46.34 52.9245 46.6635 52.9207 46.9991C52.917 47.3348 52.78 47.6553 52.54 47.89L52.53 47.84ZM55.47 32.42C55.1591 32.3921 54.8698 32.2489 54.6592 32.0185C54.4485 31.7881 54.3317 31.4872 54.3317 31.175C54.3317 30.8628 54.4485 30.5619 54.6592 30.3315C54.8698 30.1011 55.1591 29.9579 55.47 29.93C55.8068 29.9287 56.1304 30.0612 56.3695 30.2984C56.6086 30.5357 56.7437 30.8582 56.745 31.195C56.7463 31.5318 56.6138 31.8554 56.3766 32.0945C56.1393 32.3336 55.8168 32.4687 55.48 32.47L55.47 32.42Z" fill="black"/>
<path d="M35.51 25.83V27.29C35.5127 28.9388 36.1688 30.5193 37.3347 31.6852C38.5006 32.8511 40.0812 33.5073 41.73 33.51H43.19C42.9536 31.5552 42.0685 29.7361 40.6762 28.3438C39.2839 26.9515 37.4648 26.0663 35.51 25.83Z" fill="black"/>
<path d="M25.83 33.51H27.29C28.9388 33.5073 30.5193 32.8511 31.6852 31.6852C32.8511 30.5193 33.5073 28.9388 33.51 27.29V25.83C31.5558 26.068 29.7377 26.9537 28.3457 28.3457C26.9537 29.7377 26.068 31.5558 25.83 33.51V33.51Z" fill="black"/>
<path d="M35.51 41.73V43.19C37.4655 42.9553 39.2855 42.0707 40.6781 40.6781C42.0707 39.2855 42.9553 37.4655 43.19 35.51H41.73C40.0812 35.5127 38.5006 36.1688 37.3347 37.3347C36.1688 38.5006 35.5127 40.0812 35.51 41.73V41.73Z" fill="black"/>
<path d="M27.29 35.51H25.83C26.0663 37.4648 26.9515 39.2839 28.3438 40.6762C29.7361 42.0685 31.5552 42.9536 33.51 43.19V41.73C33.5073 40.0812 32.8511 38.5006 31.6852 37.3347C30.5193 36.1688 28.9388 35.5127 27.29 35.51V35.51Z" fill="black"/>
<path d="M9.72996 27.93C10.2922 28.4963 11.0564 28.816 11.8544 28.8188C12.6523 28.8216 13.4187 28.5073 13.985 27.945C14.5512 27.3828 14.8709 26.6186 14.8737 25.8206C14.8765 25.0227 14.5622 24.2563 14 23.69V23.69C13.4377 23.1238 12.6735 22.8041 11.8756 22.8013C11.0776 22.7985 10.3112 23.1128 9.74496 23.675C9.17872 24.2373 8.85903 25.0015 8.85622 25.7994C8.85341 26.5974 9.1677 27.3638 9.72996 27.93V27.93Z" fill="black"/>
<path d="M25.81 14.85C26.3035 14.8504 26.7896 14.7291 27.225 14.4967C27.6604 14.2644 28.0318 13.9282 28.3062 13.5179C28.5806 13.1077 28.7496 12.6361 28.7981 12.145C28.8466 11.6538 28.7732 11.1583 28.5844 10.7023C28.3956 10.2463 28.0972 9.84391 27.7157 9.53083C27.3341 9.21775 26.8813 9.00364 26.3972 8.90748C25.9131 8.81131 25.4128 8.83606 24.9405 8.97953C24.4683 9.12301 24.0388 9.38077 23.69 9.72997C23.271 10.1495 22.9857 10.6838 22.8701 11.2654C22.7546 11.847 22.814 12.4498 23.0408 12.9977C23.2677 13.5455 23.6518 14.0139 24.1447 14.3435C24.6375 14.6732 25.217 14.8495 25.81 14.85V14.85Z" fill="black"/>
<path d="M5.18005 42.5099C6.30005 42.2299 5.87005 41.03 5.69005 40.23C5.63923 39.9703 5.48756 39.7413 5.26826 39.5932C5.04896 39.4452 4.77991 39.39 4.52005 39.4399C4.39045 39.4651 4.26709 39.5156 4.15711 39.5886C4.04712 39.6616 3.95268 39.7557 3.87924 39.8654C3.8058 39.9751 3.7548 40.0982 3.7292 40.2277C3.70359 40.3573 3.70388 40.4906 3.73005 40.62C3.87005 41.44 4.00005 42.7599 5.18005 42.5099Z" fill="black"/>
<path d="M6.83001 44.38C6.70651 44.1906 6.52245 44.0486 6.30787 43.9772C6.09329 43.9059 5.86086 43.9094 5.64851 43.9871C5.43616 44.0649 5.25643 44.2123 5.13865 44.4053C5.02087 44.5984 4.972 44.8256 5.00001 45.05C6.7039 49.8011 9.52279 54.074 13.22 57.51C13.4215 57.6742 13.6789 57.7535 13.9378 57.7311C14.1968 57.7087 14.4368 57.5864 14.6071 57.3901C14.7774 57.1938 14.8646 56.9389 14.8502 56.6795C14.8358 56.42 14.721 56.1763 14.53 56C11.0728 52.7967 8.4326 48.8123 6.83001 44.38V44.38Z" fill="black"/>
<path d="M43.52 6.54003C49.3292 8.40686 54.4095 12.0431 58.05 16.94C58.1288 17.0451 58.2275 17.1336 58.3405 17.2005C58.4535 17.2674 58.5786 17.3114 58.7086 17.33C58.8386 17.3485 58.9709 17.3413 59.0982 17.3087C59.2254 17.2761 59.3449 17.2188 59.45 17.14C59.555 17.0612 59.6435 16.9625 59.7105 16.8495C59.7774 16.7365 59.8214 16.6114 59.8399 16.4814C59.8585 16.3514 59.8513 16.2191 59.8187 16.0918C59.7861 15.9646 59.7288 15.8451 59.65 15.74C55.7623 10.5106 50.3352 6.62911 44.13 4.64003C43.8838 4.57882 43.6236 4.61344 43.4021 4.73686C43.1805 4.86028 43.0141 5.0633 42.9365 5.30479C42.859 5.54629 42.8761 5.80822 42.9845 6.03756C43.0928 6.2669 43.2842 6.44651 43.52 6.54003Z" fill="black"/>
<path d="M39.17 5.50006C39.69 5.57006 40.17 5.71006 40.71 5.77006C40.8413 5.78319 40.9739 5.77033 41.1003 5.7322C41.2266 5.69408 41.3442 5.63145 41.4464 5.54787C41.5485 5.4643 41.6332 5.36143 41.6956 5.24513C41.758 5.12883 41.7968 5.00138 41.81 4.87006C41.8231 4.73873 41.8102 4.60611 41.7721 4.47976C41.734 4.35341 41.6714 4.2358 41.5878 4.13366C41.5042 4.03151 41.4013 3.94683 41.285 3.88444C41.1687 3.82206 41.0413 3.78319 40.91 3.77006C40.04 3.62006 38.58 3.06006 38.33 4.34006C38.3072 4.47157 38.311 4.60632 38.3411 4.73636C38.3712 4.86639 38.4271 4.98907 38.5054 5.09718C38.5836 5.20529 38.6828 5.29663 38.7969 5.36582C38.9111 5.43502 39.0379 5.48066 39.17 5.50006V5.50006Z" fill="black"/>
</svg>
